<mxfile host="Electron" modified="2025-01-29T01:39:36.608Z" agent="Mozilla/5.0 (Windows NT 10.0; Win64; x64) AppleWebKit/537.36 (KHTML, like Gecko) draw.io/24.0.4 Chrome/120.0.6099.109 Electron/28.1.0 Safari/537.36" etag="TyG_bGJZtwmQS4Qr2TK1" version="24.0.4" type="device">
  <diagram id="cpLQWzfdkX4hSLlo9C2X" name="User">
    <mxGraphModel dx="2074" dy="836" grid="1" gridSize="10" guides="1" tooltips="1" connect="1" arrows="1" fold="1" page="1" pageScale="1" pageWidth="827" pageHeight="1169" math="0" shadow="0">
      <root>
        <mxCell id="0" />
        <mxCell id="1" parent="0" />
        <mxCell id="UIa0QPu47vBtaGnN8R2V-1" value="&lt;font style=&quot;font-size: 18px;&quot;&gt;Definir&lt;br&gt;Papeis e responsabilidades para os contextos delimitados&lt;/font&gt;" style="rounded=1;whiteSpace=wrap;html=1;sketch=1;curveFitting=1;jiggle=2;" parent="1" vertex="1">
          <mxGeometry x="20" y="17" width="1550" height="60" as="geometry" />
        </mxCell>
        <mxCell id="UIa0QPu47vBtaGnN8R2V-2" value="User" style="ellipse;whiteSpace=wrap;html=1;fillColor=#d5e8d4;strokeColor=#82b366;rounded=1;sketch=1;curveFitting=1;jiggle=2;" parent="1" vertex="1">
          <mxGeometry y="160" width="120" height="80" as="geometry" />
        </mxCell>
        <mxCell id="UIa0QPu47vBtaGnN8R2V-3" value="Criação de usuários" style="whiteSpace=wrap;html=1;aspect=fixed;align=center;fillColor=#d5e8d4;strokeColor=#82b366;rounded=1;sketch=1;curveFitting=1;jiggle=2;" parent="1" vertex="1">
          <mxGeometry y="240" width="120" height="120" as="geometry" />
        </mxCell>
        <mxCell id="UIa0QPu47vBtaGnN8R2V-4" value="Queries" style="swimlane;whiteSpace=wrap;html=1;fillColor=#d5e8d4;strokeColor=#82b366;rounded=1;sketch=1;curveFitting=1;jiggle=2;" parent="1" vertex="1">
          <mxGeometry x="150" y="160" width="200" height="200" as="geometry" />
        </mxCell>
        <mxCell id="UIa0QPu47vBtaGnN8R2V-5" value="GetUserQuery" style="rounded=1;whiteSpace=wrap;html=1;sketch=1;curveFitting=1;jiggle=2;" parent="UIa0QPu47vBtaGnN8R2V-4" vertex="1">
          <mxGeometry x="10" y="40" width="180" height="40" as="geometry" />
        </mxCell>
        <mxCell id="UIa0QPu47vBtaGnN8R2V-6" value="Events" style="swimlane;whiteSpace=wrap;html=1;startSize=23;fillColor=#d5e8d4;strokeColor=#82b366;rounded=1;sketch=1;curveFitting=1;jiggle=2;" parent="1" vertex="1">
          <mxGeometry x="920" y="160" width="200" height="200" as="geometry" />
        </mxCell>
        <mxCell id="UIa0QPu47vBtaGnN8R2V-7" value="GetUserByIdQuery" style="rounded=1;whiteSpace=wrap;html=1;sketch=1;curveFitting=1;jiggle=2;" parent="1" vertex="1">
          <mxGeometry x="160" y="250" width="180" height="40" as="geometry" />
        </mxCell>
        <mxCell id="UIa0QPu47vBtaGnN8R2V-8" value="UserCreatedEvent" style="rounded=1;whiteSpace=wrap;html=1;sketch=1;curveFitting=1;jiggle=2;" parent="1" vertex="1">
          <mxGeometry x="930" y="200" width="180" height="40" as="geometry" />
        </mxCell>
        <mxCell id="UIa0QPu47vBtaGnN8R2V-9" value="UserDeletedEvent" style="rounded=1;whiteSpace=wrap;html=1;sketch=1;curveFitting=1;jiggle=2;" parent="1" vertex="1">
          <mxGeometry x="930" y="250" width="180" height="40" as="geometry" />
        </mxCell>
        <mxCell id="UIa0QPu47vBtaGnN8R2V-10" value="UserUpdatedEvent" style="rounded=1;whiteSpace=wrap;html=1;sketch=1;curveFitting=1;jiggle=2;" parent="1" vertex="1">
          <mxGeometry x="930" y="300" width="180" height="40" as="geometry" />
        </mxCell>
        <mxCell id="UIa0QPu47vBtaGnN8R2V-11" value="Commands" style="swimlane;whiteSpace=wrap;html=1;startSize=23;fillColor=#d5e8d4;strokeColor=#82b366;rounded=1;sketch=1;curveFitting=1;jiggle=2;" parent="1" vertex="1">
          <mxGeometry x="370" y="160" width="250" height="615" as="geometry" />
        </mxCell>
        <mxCell id="UIa0QPu47vBtaGnN8R2V-12" value="Auth" style="swimlane;whiteSpace=wrap;html=1;startSize=23;fillColor=#f5f5f5;strokeColor=#666666;rounded=1;fontColor=#333333;sketch=1;curveFitting=1;jiggle=2;" parent="UIa0QPu47vBtaGnN8R2V-11" vertex="1">
          <mxGeometry x="11" y="40" width="220" height="190" as="geometry" />
        </mxCell>
        <mxCell id="UIa0QPu47vBtaGnN8R2V-13" value="AuthCommand" style="rounded=1;whiteSpace=wrap;html=1;sketch=1;curveFitting=1;jiggle=2;" parent="UIa0QPu47vBtaGnN8R2V-12" vertex="1">
          <mxGeometry x="20" y="32" width="180" height="40" as="geometry" />
        </mxCell>
        <mxCell id="UIa0QPu47vBtaGnN8R2V-14" value="User" style="swimlane;whiteSpace=wrap;html=1;startSize=23;fillColor=#f5f5f5;strokeColor=#666666;rounded=1;fontColor=#333333;sketch=1;curveFitting=1;jiggle=2;" parent="UIa0QPu47vBtaGnN8R2V-12" vertex="1">
          <mxGeometry y="215" width="220" height="335" as="geometry" />
        </mxCell>
        <mxCell id="UIa0QPu47vBtaGnN8R2V-15" value="CreateUserCommand" style="rounded=1;whiteSpace=wrap;html=1;sketch=1;curveFitting=1;jiggle=2;" parent="UIa0QPu47vBtaGnN8R2V-14" vertex="1">
          <mxGeometry x="20" y="30" width="180" height="40" as="geometry" />
        </mxCell>
        <mxCell id="UIa0QPu47vBtaGnN8R2V-16" value="UpdateUserCommand" style="rounded=1;whiteSpace=wrap;html=1;sketch=1;curveFitting=1;jiggle=2;" parent="UIa0QPu47vBtaGnN8R2V-12" vertex="1">
          <mxGeometry x="20" y="295" width="180" height="40" as="geometry" />
        </mxCell>
        <mxCell id="UIa0QPu47vBtaGnN8R2V-17" value="UpdatePasswordUserCommand" style="rounded=1;whiteSpace=wrap;html=1;sketch=1;curveFitting=1;jiggle=2;" parent="UIa0QPu47vBtaGnN8R2V-12" vertex="1">
          <mxGeometry x="20" y="345" width="180" height="40" as="geometry" />
        </mxCell>
        <mxCell id="UIa0QPu47vBtaGnN8R2V-18" value="AuthResetPasswordCommand" style="rounded=1;whiteSpace=wrap;html=1;sketch=1;curveFitting=1;jiggle=2;" parent="UIa0QPu47vBtaGnN8R2V-11" vertex="1">
          <mxGeometry x="31" y="120" width="180" height="40" as="geometry" />
        </mxCell>
        <mxCell id="UIa0QPu47vBtaGnN8R2V-19" value="AuthNewPasswordCommand" style="rounded=1;whiteSpace=wrap;html=1;sketch=1;curveFitting=1;jiggle=2;" parent="UIa0QPu47vBtaGnN8R2V-11" vertex="1">
          <mxGeometry x="31" y="170" width="180" height="40" as="geometry" />
        </mxCell>
        <mxCell id="UIa0QPu47vBtaGnN8R2V-20" value="UpdateEmailUserCommand" style="rounded=1;whiteSpace=wrap;html=1;sketch=1;curveFitting=1;jiggle=2;" parent="1" vertex="1">
          <mxGeometry x="401" y="595" width="180" height="40" as="geometry" />
        </mxCell>
        <mxCell id="UIa0QPu47vBtaGnN8R2V-21" value="UpdateRoleUserCommand" style="rounded=1;whiteSpace=wrap;html=1;sketch=1;curveFitting=1;jiggle=2;" parent="1" vertex="1">
          <mxGeometry x="401" y="645" width="180" height="40" as="geometry" />
        </mxCell>
        <mxCell id="UIa0QPu47vBtaGnN8R2V-22" value="DeleteUserCommand" style="rounded=1;whiteSpace=wrap;html=1;sketch=1;curveFitting=1;jiggle=2;" parent="1" vertex="1">
          <mxGeometry x="401" y="695" width="180" height="40" as="geometry" />
        </mxCell>
        <mxCell id="UIa0QPu47vBtaGnN8R2V-23" style="edgeStyle=orthogonalEdgeStyle;rounded=0;orthogonalLoop=1;jettySize=auto;html=1;entryX=0;entryY=0.5;entryDx=0;entryDy=0;strokeWidth=3;fillColor=#f5f5f5;strokeColor=#666666;sketch=1;curveFitting=1;jiggle=2;" parent="1" source="UIa0QPu47vBtaGnN8R2V-15" target="UIa0QPu47vBtaGnN8R2V-8" edge="1">
          <mxGeometry relative="1" as="geometry" />
        </mxCell>
        <mxCell id="UIa0QPu47vBtaGnN8R2V-24" style="edgeStyle=orthogonalEdgeStyle;rounded=0;orthogonalLoop=1;jettySize=auto;html=1;strokeWidth=3;fillColor=#f5f5f5;strokeColor=#666666;sketch=1;curveFitting=1;jiggle=2;" parent="1" source="UIa0QPu47vBtaGnN8R2V-16" target="UIa0QPu47vBtaGnN8R2V-10" edge="1">
          <mxGeometry relative="1" as="geometry">
            <Array as="points">
              <mxPoint x="950" y="515" />
            </Array>
          </mxGeometry>
        </mxCell>
        <mxCell id="UIa0QPu47vBtaGnN8R2V-25" style="edgeStyle=orthogonalEdgeStyle;rounded=0;orthogonalLoop=1;jettySize=auto;html=1;strokeWidth=3;fillColor=#f5f5f5;strokeColor=#666666;sketch=1;curveFitting=1;jiggle=2;" parent="1" source="UIa0QPu47vBtaGnN8R2V-17" target="UIa0QPu47vBtaGnN8R2V-10" edge="1">
          <mxGeometry relative="1" as="geometry">
            <Array as="points">
              <mxPoint x="1000" y="565" />
            </Array>
          </mxGeometry>
        </mxCell>
        <mxCell id="UIa0QPu47vBtaGnN8R2V-26" style="edgeStyle=orthogonalEdgeStyle;rounded=0;orthogonalLoop=1;jettySize=auto;html=1;entryX=0.711;entryY=1.075;entryDx=0;entryDy=0;entryPerimeter=0;strokeWidth=3;fillColor=#f5f5f5;strokeColor=#666666;sketch=1;curveFitting=1;jiggle=2;" parent="1" source="UIa0QPu47vBtaGnN8R2V-20" target="UIa0QPu47vBtaGnN8R2V-10" edge="1">
          <mxGeometry relative="1" as="geometry" />
        </mxCell>
        <mxCell id="UIa0QPu47vBtaGnN8R2V-27" style="edgeStyle=orthogonalEdgeStyle;rounded=0;orthogonalLoop=1;jettySize=auto;html=1;entryX=0.95;entryY=0.95;entryDx=0;entryDy=0;entryPerimeter=0;strokeWidth=3;fillColor=#f5f5f5;strokeColor=#666666;sketch=1;curveFitting=1;jiggle=2;" parent="1" source="UIa0QPu47vBtaGnN8R2V-21" target="UIa0QPu47vBtaGnN8R2V-10" edge="1">
          <mxGeometry relative="1" as="geometry" />
        </mxCell>
        <mxCell id="UIa0QPu47vBtaGnN8R2V-28" style="edgeStyle=orthogonalEdgeStyle;rounded=0;orthogonalLoop=1;jettySize=auto;html=1;fillColor=#f8cecc;strokeColor=#b85450;strokeWidth=3;sketch=1;curveFitting=1;jiggle=2;" parent="1" source="UIa0QPu47vBtaGnN8R2V-22" target="UIa0QPu47vBtaGnN8R2V-9" edge="1">
          <mxGeometry relative="1" as="geometry">
            <Array as="points">
              <mxPoint x="1200" y="715" />
              <mxPoint x="1200" y="270" />
            </Array>
          </mxGeometry>
        </mxCell>
        <mxCell id="UIa0QPu47vBtaGnN8R2V-29" value="Events" style="swimlane;whiteSpace=wrap;html=1;startSize=23;fillColor=#d5e8d4;strokeColor=#82b366;rounded=1;sketch=1;curveFitting=1;jiggle=2;" parent="1" vertex="1">
          <mxGeometry x="1320" y="160" width="200" height="160" as="geometry" />
        </mxCell>
        <mxCell id="UIa0QPu47vBtaGnN8R2V-30" value="AuthEvent" style="rounded=1;whiteSpace=wrap;html=1;sketch=1;curveFitting=1;jiggle=2;" parent="UIa0QPu47vBtaGnN8R2V-29" vertex="1">
          <mxGeometry x="10" y="40" width="180" height="40" as="geometry" />
        </mxCell>
        <mxCell id="UIa0QPu47vBtaGnN8R2V-31" style="edgeStyle=orthogonalEdgeStyle;rounded=0;orthogonalLoop=1;jettySize=auto;html=1;entryX=0;entryY=0.5;entryDx=0;entryDy=0;fillColor=#f5f5f5;strokeColor=#666666;strokeWidth=3;sketch=1;curveFitting=1;jiggle=2;" parent="1" source="UIa0QPu47vBtaGnN8R2V-13" target="UIa0QPu47vBtaGnN8R2V-30" edge="1">
          <mxGeometry relative="1" as="geometry">
            <Array as="points">
              <mxPoint x="640" y="252" />
              <mxPoint x="640" y="100" />
              <mxPoint x="1300" y="100" />
              <mxPoint x="1300" y="220" />
            </Array>
          </mxGeometry>
        </mxCell>
        <mxCell id="UIa0QPu47vBtaGnN8R2V-32" value="AuthResetEvent" style="rounded=1;whiteSpace=wrap;html=1;sketch=1;curveFitting=1;jiggle=2;" parent="1" vertex="1">
          <mxGeometry x="1330" y="250" width="180" height="40" as="geometry" />
        </mxCell>
        <mxCell id="UIa0QPu47vBtaGnN8R2V-33" style="edgeStyle=orthogonalEdgeStyle;rounded=0;orthogonalLoop=1;jettySize=auto;html=1;strokeWidth=3;fillColor=#f5f5f5;strokeColor=#666666;sketch=1;curveFitting=1;jiggle=2;" parent="1" source="UIa0QPu47vBtaGnN8R2V-18" target="UIa0QPu47vBtaGnN8R2V-32" edge="1">
          <mxGeometry relative="1" as="geometry">
            <Array as="points">
              <mxPoint x="670" y="300" />
              <mxPoint x="670" y="120" />
              <mxPoint x="1280" y="120" />
              <mxPoint x="1280" y="270" />
            </Array>
          </mxGeometry>
        </mxCell>
        <mxCell id="UIa0QPu47vBtaGnN8R2V-34" value="User" style="ellipse;whiteSpace=wrap;html=1;fillColor=#dae8fc;strokeColor=#6c8ebf;rounded=1;sketch=1;curveFitting=1;jiggle=2;" parent="1" vertex="1">
          <mxGeometry x="20" y="809" width="120" height="80" as="geometry" />
        </mxCell>
        <mxCell id="UIa0QPu47vBtaGnN8R2V-35" style="edgeStyle=orthogonalEdgeStyle;rounded=0;orthogonalLoop=1;jettySize=auto;html=1;entryX=0;entryY=0.5;entryDx=0;entryDy=0;strokeWidth=3;fillColor=#dae8fc;strokeColor=#6c8ebf;sketch=1;curveFitting=1;jiggle=2;" parent="1" source="UIa0QPu47vBtaGnN8R2V-36" target="UIa0QPu47vBtaGnN8R2V-37" edge="1">
          <mxGeometry relative="1" as="geometry">
            <Array as="points">
              <mxPoint x="245" y="940" />
              <mxPoint x="245" y="910" />
            </Array>
          </mxGeometry>
        </mxCell>
        <mxCell id="UIa0QPu47vBtaGnN8R2V-36" value="User Aggregate&lt;ul&gt;&lt;li&gt;FirstName&lt;/li&gt;&lt;li&gt;LastName&lt;/li&gt;&lt;li&gt;Gender&lt;/li&gt;&lt;li&gt;Notification&lt;/li&gt;&lt;li&gt;RoleUserAuth&lt;br&gt;&lt;/li&gt;&lt;li&gt;Password&lt;br&gt;&lt;/li&gt;&lt;li&gt;DateOfBirth&lt;br&gt;&lt;/li&gt;&lt;/ul&gt;" style="rounded=1;whiteSpace=wrap;html=1;align=left;fillColor=#dae8fc;strokeColor=#6c8ebf;sketch=1;curveFitting=1;jiggle=2;" parent="1" vertex="1">
          <mxGeometry y="889" width="170" height="180" as="geometry" />
        </mxCell>
        <mxCell id="UIa0QPu47vBtaGnN8R2V-37" value="Email ValueObject&lt;br&gt;&lt;ul&gt;&lt;li&gt;Address&lt;br&gt;&lt;/li&gt;&lt;/ul&gt;" style="rounded=1;whiteSpace=wrap;html=1;align=left;fillColor=#dae8fc;strokeColor=#6c8ebf;sketch=1;curveFitting=1;jiggle=2;" parent="1" vertex="1">
          <mxGeometry x="320" y="880" width="200" height="60" as="geometry" />
        </mxCell>
        <mxCell id="UIa0QPu47vBtaGnN8R2V-38" value="PhoneNumber ValueObject&lt;br&gt;&lt;ul&gt;&lt;li&gt;Phone&lt;br&gt;&lt;/li&gt;&lt;/ul&gt;" style="rounded=1;whiteSpace=wrap;html=1;align=left;fillColor=#dae8fc;strokeColor=#6c8ebf;sketch=1;curveFitting=1;jiggle=2;" parent="1" vertex="1">
          <mxGeometry x="320" y="990" width="200" height="90" as="geometry" />
        </mxCell>
        <mxCell id="UIa0QPu47vBtaGnN8R2V-39" style="edgeStyle=orthogonalEdgeStyle;rounded=0;orthogonalLoop=1;jettySize=auto;html=1;entryX=0.01;entryY=0.589;entryDx=0;entryDy=0;entryPerimeter=0;strokeWidth=3;fillColor=#dae8fc;strokeColor=#6c8ebf;sketch=1;curveFitting=1;jiggle=2;" parent="1" source="UIa0QPu47vBtaGnN8R2V-36" target="UIa0QPu47vBtaGnN8R2V-38" edge="1">
          <mxGeometry relative="1" as="geometry">
            <Array as="points">
              <mxPoint x="245" y="1010" />
              <mxPoint x="245" y="1043" />
            </Array>
          </mxGeometry>
        </mxCell>
        <mxCell id="UIa0QPu47vBtaGnN8R2V-40" style="edgeStyle=orthogonalEdgeStyle;rounded=0;orthogonalLoop=1;jettySize=auto;html=1;entryX=1;entryY=0.75;entryDx=0;entryDy=0;fillColor=#dae8fc;strokeColor=#6c8ebf;strokeWidth=2;sketch=1;curveFitting=1;jiggle=2;" parent="1" source="UIa0QPu47vBtaGnN8R2V-41" target="UIa0QPu47vBtaGnN8R2V-54" edge="1">
          <mxGeometry relative="1" as="geometry">
            <Array as="points">
              <mxPoint x="580" y="1285" />
              <mxPoint x="580" y="1285" />
            </Array>
          </mxGeometry>
        </mxCell>
        <mxCell id="UIa0QPu47vBtaGnN8R2V-41" value="SQL DataBase - SQL Server" style="shape=cylinder3;whiteSpace=wrap;html=1;boundedLbl=1;backgroundOutline=1;size=15;sketch=1;curveFitting=1;jiggle=2;fillColor=#f5f5f5;fontColor=#333333;strokeColor=#666666;" parent="1" vertex="1">
          <mxGeometry x="650" y="1170" width="150" height="130" as="geometry" />
        </mxCell>
        <mxCell id="UIa0QPu47vBtaGnN8R2V-42" style="edgeStyle=orthogonalEdgeStyle;rounded=0;orthogonalLoop=1;jettySize=auto;html=1;entryX=1;entryY=0.5;entryDx=0;entryDy=0;sketch=1;curveFitting=1;jiggle=2;fillColor=#dae8fc;strokeColor=#6c8ebf;strokeWidth=2;" parent="1" source="UIa0QPu47vBtaGnN8R2V-43" target="UIa0QPu47vBtaGnN8R2V-49" edge="1">
          <mxGeometry relative="1" as="geometry">
            <Array as="points">
              <mxPoint x="580" y="1480" />
              <mxPoint x="580" y="1480" />
            </Array>
          </mxGeometry>
        </mxCell>
        <mxCell id="UIa0QPu47vBtaGnN8R2V-43" value="Cache Redis" style="shape=cylinder3;whiteSpace=wrap;html=1;boundedLbl=1;backgroundOutline=1;size=15;sketch=1;curveFitting=1;jiggle=2;fillColor=#f5f5f5;fontColor=#333333;strokeColor=#666666;" parent="1" vertex="1">
          <mxGeometry x="640" y="1410" width="115" height="100" as="geometry" />
        </mxCell>
        <mxCell id="UIa0QPu47vBtaGnN8R2V-44" style="edgeStyle=orthogonalEdgeStyle;rounded=0;orthogonalLoop=1;jettySize=auto;html=1;entryX=0;entryY=0.25;entryDx=0;entryDy=0;fillColor=#e1d5e7;strokeColor=#9673a6;sketch=1;curveFitting=1;jiggle=2;strokeWidth=2;" parent="1" source="UIa0QPu47vBtaGnN8R2V-45" target="UIa0QPu47vBtaGnN8R2V-54" edge="1">
          <mxGeometry relative="1" as="geometry" />
        </mxCell>
        <mxCell id="UIa0QPu47vBtaGnN8R2V-45" value="User" style="shape=umlActor;verticalLabelPosition=bottom;verticalAlign=top;html=1;outlineConnect=0;fillColor=#f8cecc;strokeColor=#b85450;sketch=1;curveFitting=1;jiggle=2;" parent="1" vertex="1">
          <mxGeometry x="20" y="1230" width="30" height="60" as="geometry" />
        </mxCell>
        <mxCell id="UIa0QPu47vBtaGnN8R2V-46" style="edgeStyle=orthogonalEdgeStyle;rounded=0;orthogonalLoop=1;jettySize=auto;html=1;entryX=0.017;entryY=0.133;entryDx=0;entryDy=0;entryPerimeter=0;strokeWidth=2;fillColor=#e1d5e7;strokeColor=#9673a6;sketch=1;curveFitting=1;jiggle=2;" parent="1" source="UIa0QPu47vBtaGnN8R2V-47" target="UIa0QPu47vBtaGnN8R2V-49" edge="1">
          <mxGeometry relative="1" as="geometry" />
        </mxCell>
        <mxCell id="UIa0QPu47vBtaGnN8R2V-47" value="User" style="shape=umlActor;verticalLabelPosition=bottom;verticalAlign=top;html=1;outlineConnect=0;fillColor=#f8cecc;strokeColor=#b85450;sketch=1;curveFitting=1;jiggle=2;" parent="1" vertex="1">
          <mxGeometry x="20" y="1430" width="30" height="60" as="geometry" />
        </mxCell>
        <mxCell id="UIa0QPu47vBtaGnN8R2V-48" style="edgeStyle=orthogonalEdgeStyle;rounded=0;orthogonalLoop=1;jettySize=auto;html=1;fillColor=#e1d5e7;strokeColor=#9673a6;strokeWidth=2;sketch=1;curveFitting=1;jiggle=2;" parent="1" source="UIa0QPu47vBtaGnN8R2V-49" target="UIa0QPu47vBtaGnN8R2V-43" edge="1">
          <mxGeometry relative="1" as="geometry">
            <Array as="points">
              <mxPoint x="470" y="1460" />
              <mxPoint x="470" y="1460" />
            </Array>
          </mxGeometry>
        </mxCell>
        <mxCell id="UIa0QPu47vBtaGnN8R2V-49" value="Query&amp;nbsp;Handler" style="rounded=0;whiteSpace=wrap;html=1;fillColor=#fff2cc;strokeColor=#d6b656;sketch=1;curveFitting=1;jiggle=2;" parent="1" vertex="1">
          <mxGeometry x="290" y="1450" width="120" height="60" as="geometry" />
        </mxCell>
        <mxCell id="UIa0QPu47vBtaGnN8R2V-50" style="edgeStyle=orthogonalEdgeStyle;rounded=0;orthogonalLoop=1;jettySize=auto;html=1;entryX=1;entryY=1;entryDx=0;entryDy=0;entryPerimeter=0;fillColor=#dae8fc;strokeColor=#6c8ebf;strokeWidth=2;sketch=1;curveFitting=1;jiggle=2;" parent="1" source="UIa0QPu47vBtaGnN8R2V-49" target="UIa0QPu47vBtaGnN8R2V-47" edge="1">
          <mxGeometry relative="1" as="geometry">
            <Array as="points">
              <mxPoint x="170" y="1480" />
              <mxPoint x="170" y="1490" />
            </Array>
          </mxGeometry>
        </mxCell>
        <mxCell id="UIa0QPu47vBtaGnN8R2V-51" value="GET" style="text;html=1;align=center;verticalAlign=middle;resizable=0;points=[];autosize=1;strokeColor=none;fillColor=none;sketch=1;curveFitting=1;jiggle=2;" parent="1" vertex="1">
          <mxGeometry x="105" y="1428" width="50" height="30" as="geometry" />
        </mxCell>
        <mxCell id="UIa0QPu47vBtaGnN8R2V-52" style="edgeStyle=orthogonalEdgeStyle;rounded=0;orthogonalLoop=1;jettySize=auto;html=1;entryX=0.06;entryY=0.954;entryDx=0;entryDy=0;entryPerimeter=0;fillColor=#e1d5e7;strokeColor=#9673a6;strokeWidth=2;sketch=1;curveFitting=1;jiggle=2;" parent="1" source="UIa0QPu47vBtaGnN8R2V-49" target="UIa0QPu47vBtaGnN8R2V-41" edge="1">
          <mxGeometry relative="1" as="geometry">
            <Array as="points">
              <mxPoint x="350" y="1420" />
              <mxPoint x="580" y="1420" />
              <mxPoint x="580" y="1310" />
              <mxPoint x="659" y="1310" />
            </Array>
          </mxGeometry>
        </mxCell>
        <mxCell id="UIa0QPu47vBtaGnN8R2V-53" style="edgeStyle=orthogonalEdgeStyle;rounded=0;orthogonalLoop=1;jettySize=auto;html=1;fillColor=#dae8fc;strokeColor=#6c8ebf;strokeWidth=2;sketch=1;curveFitting=1;jiggle=2;" parent="1" source="UIa0QPu47vBtaGnN8R2V-54" target="UIa0QPu47vBtaGnN8R2V-45" edge="1">
          <mxGeometry relative="1" as="geometry">
            <Array as="points">
              <mxPoint x="165" y="1270" />
              <mxPoint x="165" y="1280" />
            </Array>
          </mxGeometry>
        </mxCell>
        <mxCell id="UIa0QPu47vBtaGnN8R2V-54" value="Command" style="rounded=0;whiteSpace=wrap;html=1;fillColor=#d5e8d4;strokeColor=#82b366;sketch=1;curveFitting=1;jiggle=2;" parent="1" vertex="1">
          <mxGeometry x="280" y="1240" width="120" height="60" as="geometry" />
        </mxCell>
        <mxCell id="UIa0QPu47vBtaGnN8R2V-55" style="edgeStyle=orthogonalEdgeStyle;rounded=0;orthogonalLoop=1;jettySize=auto;html=1;entryX=0.007;entryY=0.215;entryDx=0;entryDy=0;entryPerimeter=0;fillColor=#e1d5e7;strokeColor=#9673a6;sketch=1;curveFitting=1;jiggle=2;strokeWidth=2;" parent="1" source="UIa0QPu47vBtaGnN8R2V-54" target="UIa0QPu47vBtaGnN8R2V-41" edge="1">
          <mxGeometry relative="1" as="geometry" />
        </mxCell>
        <mxCell id="UIa0QPu47vBtaGnN8R2V-56" style="edgeStyle=orthogonalEdgeStyle;rounded=0;orthogonalLoop=1;jettySize=auto;html=1;entryX=0.217;entryY=0.05;entryDx=0;entryDy=0;entryPerimeter=0;fillColor=#d5e8d4;strokeColor=#82b366;sketch=1;curveFitting=1;jiggle=2;strokeWidth=2;" parent="1" source="UIa0QPu47vBtaGnN8R2V-54" target="UIa0QPu47vBtaGnN8R2V-43" edge="1">
          <mxGeometry relative="1" as="geometry">
            <Array as="points">
              <mxPoint x="340" y="1340" />
              <mxPoint x="665" y="1340" />
            </Array>
          </mxGeometry>
        </mxCell>
        <mxCell id="UIa0QPu47vBtaGnN8R2V-57" value="POST / PUT / DELETE" style="text;html=1;align=center;verticalAlign=middle;resizable=0;points=[];autosize=1;strokeColor=none;fillColor=none;sketch=1;curveFitting=1;jiggle=2;" parent="1" vertex="1">
          <mxGeometry x="85" y="1208" width="150" height="30" as="geometry" />
        </mxCell>
      </root>
    </mxGraphModel>
  </diagram>
</mxfile>
